<svg width="68" height="46" viewBox="0 0 68 46" fill="none" xmlns="http://www.w3.org/2000/svg">
<path d="M7.75417 3.21371C12.6163 -0.0118243 19.1174 0.319773 23.7063 3.99749C19.3359 4.90185 15.2932 7.82593 13.0533 12.1367C11.8788 14.4277 11.3325 17.0805 11.3598 19.7333C8.02732 20.7582 4.968 23.2301 3.38371 26.6667C0.925323 23.0493 0.0239161 18.2863 0.843377 13.8851C1.66284 9.45377 4.2578 5.44446 7.78148 3.21371H7.75417Z" fill="#FF8841" stroke="#FF8841" stroke-width="0.1"/>
<path d="M23.2894 3.78279C29.6532 2.38867 36.809 5.35874 40.223 11.6625C44.3745 8.63187 50.3832 9.14709 53.9338 13.1779C55.3814 14.7841 56.3373 16.9359 56.5558 19.2392C60.5434 19.7848 64.3671 22.3911 66.3063 26.3916C67.945 29.7254 68.0269 33.9683 66.4428 37.3627C64.2578 42.1209 59.5055 45 54.7532 45H14.6041C9.96102 45 5.18137 42.2118 2.99639 37.5445C1.35765 34.2108 1.35765 29.9678 2.99639 26.5735C4.55319 23.1185 7.63948 20.6334 10.917 19.6029C10.917 16.9359 11.4632 14.2689 12.6649 11.9656C14.8499 7.63175 18.9468 4.69199 23.2621 3.78279H23.2894ZM46.0679 24.4823C44.2653 25.1491 42.927 27.0887 42.8996 29.2405C41.3702 29.8466 39.9772 31.271 39.9772 33.1804C39.8953 35.6049 41.9983 37.4233 44.0741 37.4233H56.9108C57.8668 37.4233 58.8227 37.1809 59.6421 36.5141C61.0077 35.6049 61.6632 33.6047 61.0623 31.9681C60.5707 30.3618 59.1505 29.4526 57.7848 29.1192C57.5117 28.301 57.2386 27.4221 56.5558 26.9069C55.3814 25.8764 53.7153 25.8764 52.4589 26.6644C51.0933 24.4217 48.3621 23.4822 46.0679 24.452V24.4823Z" fill="#E4E3E3" stroke="#E4E3E3" stroke-width="0.1"/>
<path d="M45.8249 24.6247C48.1591 23.6144 50.9713 24.5635 52.3774 26.829C53.6992 26.033 55.4146 26.033 56.5957 27.0739C57.3269 27.5944 57.6081 28.4822 57.8894 29.3088C59.2955 29.6149 60.7578 30.5334 61.264 32.156C61.8827 33.8092 61.1797 35.8298 59.8017 36.7482C58.958 37.4218 57.9737 37.6667 56.9895 37.6667H43.772C41.6347 37.6667 39.4693 35.8298 39.5537 33.3806C39.5537 31.4518 40.9598 30.0129 42.5909 29.4006C42.5909 27.2576 43.997 25.2676 45.8249 24.5635V24.6247Z" fill="#ACA6A6" stroke="#ACA6A6" stroke-width="0.1"/>
</svg>
