<svg width="44" height="44" viewBox="0 0 44 44" fill="none" xmlns="http://www.w3.org/2000/svg">
<path d="M39 0H5C2.23858 0 0 2.23858 0 5V39C0 41.7614 2.23858 44 5 44H39C41.7614 44 44 41.7614 44 39V5C44 2.23858 41.7614 0 39 0Z" fill="#B4B8BB" fill-opacity="0.4"/>
<path d="M27.2218 44L7.2218 24L0 31.2218V39C0 41.7614 2.23858 44 5 44H27.2218Z" fill="#AEB5B9" fill-opacity="0.5"/>
<path d="M34.2218 14L44 23.7782V39C44 41.7614 41.7614 44 39 44H27.2218L15.7218 32.5L34.2218 14Z" fill="#AEB5B9" fill-opacity="0.3"/>
<path d="M9 13C11.2091 13 13 11.2091 13 9C13 6.79086 11.2091 5 9 5C6.79086 5 5 6.79086 5 9C5 11.2091 6.79086 13 9 13Z" fill="white" fill-opacity="0.3"/>
<path d="M14.0492 23.7003C13.9314 22.6417 14.0296 21.6198 14.2966 20.6753C15.1841 17.5362 17.9684 15.2278 21.2711 15.1871V13.1351C21.2711 13.0211 21.4086 12.96 21.4989 13.0292L25.5713 16.1316C25.638 16.1845 25.638 16.2904 25.5713 16.3392L21.5028 19.4416C21.4086 19.5108 21.275 19.4498 21.275 19.3358V17.2879C19.1034 17.3245 17.2498 18.7129 16.4526 20.6753C16.1502 21.4162 15.997 22.2346 16.0402 23.0936C16.0991 24.2743 16.5272 25.3614 17.2027 26.2408C17.5639 26.709 17.4775 27.393 17.0102 27.7472C16.5665 28.0851 15.946 27.9915 15.6043 27.5436C14.7679 26.4607 14.2102 25.1415 14.0492 23.7003ZM25.8069 19.7592C26.4863 20.6345 26.9144 21.7257 26.9693 22.9064C27.0125 23.7695 26.8554 24.5878 26.557 25.3247C25.7598 27.2871 23.9062 28.6796 21.7345 28.7121V26.6642C21.7345 26.5502 21.5971 26.4892 21.5067 26.5584L17.4344 29.6607C17.3676 29.7137 17.3676 29.8195 17.4344 29.8684L21.5028 32.9708C21.5971 33.04 21.7306 32.9789 21.7306 32.8649V30.8129C25.0333 30.7763 27.8215 28.4678 28.7051 25.3247C28.9721 24.3802 29.0664 23.3583 28.9525 22.2997C28.7954 20.8585 28.2378 19.5393 27.4013 18.4564C27.0557 18.0085 26.4392 17.9149 25.9954 18.2528C25.532 18.607 25.4456 19.291 25.8069 19.7592Z" fill="white"/>
</svg>
