<svg width="67" height="43" viewBox="0 0 67 43" fill="none" xmlns="http://www.w3.org/2000/svg">
<path d="M21.8988 0.782786C28.2625 -0.611326 35.4184 2.35874 38.8324 8.66255C42.9839 5.63187 48.9926 6.14709 52.5432 10.1779C53.9907 11.7841 54.9466 13.9359 55.1651 16.2392C59.1527 16.7848 62.9764 19.3911 64.9156 23.3916C66.5544 26.7254 66.6363 30.9683 65.0522 34.3627C62.8672 39.1209 58.1149 42 53.3625 42H13.2135C8.57039 42 3.79074 39.2118 1.60576 34.5445C-0.0329751 31.2108 -0.0329751 26.9678 1.60576 23.5735C3.16256 20.1185 6.24885 17.6334 9.52632 16.6029C9.52632 13.9359 10.0726 11.2689 11.2743 8.96562C13.4593 4.63175 17.5561 1.69199 21.8715 0.782786H21.8988ZM44.6772 21.4823C42.8746 22.1491 41.5363 24.0887 41.509 26.2405C39.9795 26.8466 38.5866 28.271 38.5866 30.1804C38.5046 32.6049 40.6077 34.4233 42.6834 34.4233H55.5202C56.4761 34.4233 57.4321 34.1809 58.2514 33.5141C59.617 32.6049 60.2725 30.6047 59.6717 28.9681C59.18 27.3618 57.7598 26.4526 56.3942 26.1192C56.1211 25.301 55.8479 24.4221 55.1651 23.9069C53.9907 22.8764 52.3247 22.8764 51.0683 23.6644C49.7027 21.4217 46.9715 20.4822 44.6772 21.452V21.4823Z" fill="#E4E3E3" stroke="#E4E3E3" stroke-width="0.1"/>
<path d="M44.4343 21.6247C46.7684 20.6144 49.5806 21.5635 50.9868 23.829C52.3085 23.033 54.024 23.033 55.2051 24.0739C55.9363 24.5944 56.2175 25.4822 56.4987 26.3088C57.9048 26.6149 59.3672 27.5334 59.8734 29.156C60.4921 30.8092 59.789 32.8298 58.411 33.7482C57.5674 34.4218 56.5831 34.6667 55.5988 34.6667H42.3814C40.2441 34.6667 38.0787 32.8298 38.163 30.3806C38.163 28.4518 39.5691 27.0129 41.2002 26.4006C41.2002 24.2576 42.6063 22.2676 44.4343 21.5635V21.6247Z" fill="#ACA6A6" stroke="#ACA6A6" stroke-width="0.1"/>
</svg>
