<svg width="67" height="43" viewBox="0 0 67 43" fill="none" xmlns="http://www.w3.org/2000/svg">
<path d="M22.4833 0.782786C28.847 -0.611326 36.0028 2.35874 39.4169 8.66255C43.5684 5.63187 49.5771 6.14709 53.1277 10.1779C54.5752 11.7841 55.5311 13.9359 55.7496 16.2392C59.7372 16.7848 63.5609 19.3911 65.5001 23.3916C67.1389 26.7254 67.2208 30.9683 65.6367 34.3627C63.4517 39.1209 58.6994 42 53.947 42H13.798C9.15487 42 4.37522 39.2118 2.19023 34.5445C0.551497 31.2108 0.551497 26.9678 2.19023 23.5735C3.74704 20.1185 6.83332 17.6334 10.1108 16.6029C10.1108 13.9359 10.657 11.2689 11.8588 8.96562C14.0438 4.63175 18.1406 1.69199 22.456 0.782786H22.4833ZM45.2617 21.4823C43.4591 22.1491 42.1208 24.0887 42.0935 26.2405C40.564 26.8466 39.1711 28.271 39.1711 30.1804C39.0891 32.6049 41.1922 34.4233 43.2679 34.4233H56.1047C57.0606 34.4233 58.0165 34.1809 58.8359 33.5141C60.2015 32.6049 60.857 30.6047 60.2562 28.9681C59.7645 27.3618 58.3443 26.4526 56.9787 26.1192C56.7056 25.301 56.4324 24.4221 55.7496 23.9069C54.5752 22.8764 52.9092 22.8764 51.6528 23.6644C50.2872 21.4217 47.5559 20.4822 45.2617 21.452V21.4823Z" fill="#E4E3E3" stroke="#E4E3E3" stroke-width="0.1"/>
<path d="M45.0188 21.6247C47.3529 20.6144 50.1651 21.5635 51.5712 23.829C52.893 23.033 54.6085 23.033 55.7896 24.0739C56.5208 24.5944 56.802 25.4822 57.0832 26.3088C58.4893 26.6149 59.9517 27.5334 60.4579 29.156C61.0766 30.8092 60.3735 32.8298 58.9955 33.7482C58.1519 34.4218 57.1676 34.6667 56.1833 34.6667H42.9658C40.8286 34.6667 38.6631 32.8298 38.7475 30.3806C38.7475 28.4518 40.1536 27.0129 41.7847 26.4006C41.7847 24.2576 43.1908 22.2676 45.0188 21.5635V21.6247Z" fill="#ACA6A6" stroke="#ACA6A6" stroke-width="0.1"/>
</svg>
